#!OML:ASF I:\Actors\actors\Patient Classification 2\Patient 1\Session 1\actor1.ASF
:FULLY-SPECIFIED
:DEGREES
892
root -0.424851 18.6613 5.94656 2.18457 6.66164 -8.33332
lowerback 15.7306 3.15313 -2.00425
upperback 0.153785 3.46824 -3.89708
thorax -8.54471 1.66379 -3.85521
lowerneck -20.7831 -7.20249 -4.9982
upperneck 10.8071 -8.76875 3.05993
head 7.01433 -4.14648 0.735064
rclavicle -1.55052e-014 0
rhumerus 24.7526 -5.01324 -20.2312
rradius 60.1417
rwrist -15.6464
rhand -6.03244 -38.3755
rfingers 7.12502
rthumb 19.8012 -67.3869
lclavicle -1.55052e-014 0
lhumerus 17.4378 -18.7154 53.6109
lradius 89.2646
lwrist 29.3467
lhand 4.59193 -21.6998
lfingers 7.12502
lthumb 29.9807 5.89096
rfemur 7.24787 -2.73477 21.854
rtibia 1.74931e-014
rfoot -17.3436 -12.7445
rtoes -14.4488
lfemur -14.3133 -2.94791 -5.34524
ltibia 33.0643
lfoot -19.8697 4.11769
ltoes -57.7281
893
root -0.419757 18.6356 5.94886 1.90042 5.95909 -8.34997
lowerback 15.7943 3.19109 -2.09124
upperback 0.218595 3.50273 -3.87826
thorax -8.51485 1.68442 -3.79441
lowerneck -20.7024 -7.06642 -4.93716
upperneck 11.2232 -8.65634 3.25305
head 7.1416 -4.07085 0.797671
rclavicle 1.98785e-014 -1.59028e-014
rhumerus 24.0089 -1.30826 -18.5743
rradius 62.8238
rwrist -15.5397
rhand -5.42978 -36.4316
rfingers 7.12502
rthumb 20.3804 -65.3822
lclavicle 1.98785e-014 -1.59028e-014
lhumerus 16.6999 -18.6499 53.4282
lradius 89.3961
lwrist 29.2791
lhand 4.60782 -21.7055
lfingers 7.12502
lthumb 29.9958 5.88257
rfemur 7.52235 -2.04263 21.8631
rtibia 1.59028e-015
rfoot -17.5445 -12.7504
rtoes -14.3325
lfemur -13.8518 -2.91639 -5.4272
ltibia 33.2905
lfoot -20.3516 4.6533
ltoes -57.672
894
root -0.418097 18.6099 5.95342 1.64902 5.3804 -8.33595
lowerback 15.885 3.29634 -2.18012
upperback 0.355472 3.63517 -3.76824
thorax -8.42349 1.75505 -3.65383
lowerneck -20.951 -7.06282 -5.30286
upperneck 11.7109 -8.58292 3.43388
head 7.36532 -4.02773 0.906654
rclavicle -2.74323e-014 1.59028e-014
rhumerus 22.2783 1.23049 -17.6135
rradius 66.7823
rwrist -16.2523
rhand -5.26641 -35.8392
rfingers 7.12502
rthumb 20.5374 -64.7729
lclavicle -2.74323e-014 1.59028e-014
lhumerus 16.3083 -18.6408 53.452
lradius 89.4999
lwrist 29.1385
lhand 4.70735 -21.7501
lfingers 7.12502
lthumb 30.0908 5.82069
rfemur 7.77867 -1.47447 21.8594
rtibia -4.77083e-015
rfoot -17.6531 -12.7416
rtoes -13.9997
lfemur -13.4832 -2.97785 -5.52397
ltibia 33.5757
lfoot -20.8354 5.12077
ltoes -57.5944
895
root -0.415595 18.5858 5.9593 1.4614 4.89045 -8.35249
lowerback 15.9139 3.3228 -2.33239
upperback 0.425935 3.6558 -3.61521
thorax -8.38195 1.77439 -3.40549
lowerneck -21.1269 -6.9185 -5.50866
upperneck 12.1811 -8.32325 3.36776
head 7.54514 -3.91438 0.938959
rclavicle 6.91771e-014 -4.92986e-014
rhumerus 20.7151 2.90178 -17.995
rradius 70.6949
rwrist -17.3533
rhand -5.19605 -36.0346
rfingers 7.12502
rthumb 20.605 -64.961
lclavicle 6.91771e-014 -4.92986e-014
lhumerus 15.7928 -18.5103 53.4417
lradius 89.5893
lwrist 28.9515
lhand 4.8497 -21.7313
lfingers 7.12502
lthumb 30.2266 5.81471
rfemur 7.96135 -0.991734 21.886
rtibia -3.65764e-014
rfoot -17.6028 -12.8235
rtoes -14.4583
lfemur -13.2475 -3.00996 -5.58073
ltibia 33.9113
lfoot -21.3026 5.53307
ltoes -57.5811
896
root -0.40863 18.565 5.97032 1.29332 4.42372 -8.47863
lowerback 15.8741 3.30141 -2.37575
upperback 0.435285 3.63443 -3.46245
thorax -8.36294 1.76904 -3.2079
lowerneck -21.0611 -6.65449 -5.41904
upperneck 12.4629 -7.9531 3.07609
head 7.59572 -3.76219 0.876735
rclavicle -3.02153e-014 3.33958e-014
rhumerus 18.7045 4.31246 -18.609
rradius 74.9101
rwrist -18.3774
rhand -4.79293 -36.0928
rfingers 7.12502
rthumb 20.9924 -64.9767
lclavicle -3.02153e-014 3.33958e-014
lhumerus 15.1081 -18.3807 53.2708
lradius 89.8114
lwrist 28.8547
lhand 4.86988 -21.793
lfingers 7.12502
lthumb 30.2459 5.7495
rfemur 8.12838 -0.528151 22.0071
rtibia 2.38542e-014
rfoot -17.5464 -12.9171
rtoes -14.9763
lfemur -13.0557 -2.98857 -5.52711
ltibia 34.2723
lfoot -21.6929 5.96732
ltoes -57.6791
897
root -0.399098 18.5488 5.98547 1.16448 4.05086 -8.66934
lowerback 15.7588 3.21626 -2.30222
upperback 0.428816 3.5508 -3.34064
thorax -8.3111 1.72917 -3.09099
lowerneck -20.981 -6.34351 -5.21107
upperneck 12.6956 -7.54872 2.76697
head 7.62238 -3.5904 0.795719
rclavicle 1.07344e-014 -2.38542e-014
rhumerus 16.4719 5.60749 -18.9414
rradius 79.0077
rwrist -19.1247
rhand -4.11232 -35.6402
rfingers 7.12502
rthumb 21.6461 -64.4503
lclavicle 1.07344e-014 -2.38542e-014
lhumerus 14.4023 -18.247 52.8344
lradius 90.1447
lwrist 28.8872
lhand 4.77766 -21.9848
lfingers 7.12502
lthumb 30.1579 5.57381
rfemur 8.27396 -0.155802 22.191
rtibia 2.38542e-014
rfoot -17.4888 -13.0173
rtoes -15.4592
lfemur -12.9419 -2.95358 -5.39766
ltibia 34.6355
lfoot -21.9766 6.32604
ltoes -57.8491
898
root -0.388964 18.5366 6.00222 1.07119 3.77966 -8.86747
lowerback 15.6205 3.04877 -2.19765
upperback 0.397643 3.36161 -3.24595
thorax -8.27262 1.63663 -2.9973
lowerneck -20.8999 -6.01805 -5.03196
upperneck 12.9268 -7.13746 2.57825
head 7.65627 -3.40495 0.759213
rclavicle -1.07344e-014 1.74931e-014
rhumerus 14.573 6.81036 -19.1359
rradius 82.5119
rwrist -19.3615
rhand -3.41376 -35.2432
rfingers 7.12502
rthumb 22.3168 -63.9744
lclavicle -1.07344e-014 1.74931e-014
lhumerus 13.7108 -18.0513 52.2444
lradius 90.4514
lwrist 28.9743
lhand 4.66046 -22.1325
lfingers 7.12502
lthumb 30.0461 5.44643
rfemur 8.38866 0.115654 22.3885
rtibia -2.70347e-014
rfoot -17.3751 -13.1917
rtoes -16.64
lfemur -12.8804 -2.94404 -5.24594
ltibia 34.9577
lfoot -22.165 6.5314
ltoes -57.9877
899
root -0.379181 18.5277 6.02337 1.00105 3.51716 -9.01144
lowerback 15.4457 2.87688 -2.14846
upperback 0.361578 3.15635 -3.16771
thorax -8.22143 1.53826 -2.88535
lowerneck -20.8294 -5.72224 -4.84831
upperneck 13.113 -6.7608 2.36879
head 7.67857 -3.2378 0.710479
rclavicle -3.02153e-014 9.54166e-015
rhumerus 12.918 7.91317 -19.1385
rradius 85.5226
rwrist -19.2154
rhand -2.74217 -34.9427
rfingers 7.12502
rthumb 22.9614 -63.5953
lclavicle -3.02153e-014 9.54166e-015
lhumerus 13.067 -17.8313 51.6606
lradius 90.7215
lwrist 28.9926
lhand 4.58954 -22.1787
lfingers 7.12502
lthumb 29.9784 5.41252
rfemur 8.49629 0.378079 22.5256
rtibia 2.06736e-014
rfoot -17.2628 -13.3833
rtoes -17.9087
lfemur -12.7593 -2.93635 -5.14226
ltibia 35.167
lfoot -22.3275 6.61367
ltoes -57.9984
900
root -0.370106 18.5201 6.05104 0.889118 3.19265 -9.0191
lowerback 15.2939 2.72888 -2.24065
upperback 0.307348 2.94918 -3.16588
thorax -8.20593 1.44233 -2.77889
lowerneck -20.8005 -5.39921 -4.44743
upperneck 13.338 -6.37129 1.96113
head 7.70733 -3.07268 0.562044
rclavicle -7.55382e-015 -1.27222e-014
rhumerus 11.0999 9.35215 -18.3186
rradius 88.5025
rwrist -19.6077
rhand -2.63578 -34.4897
rfingers 7.12502
rthumb 23.0635 -63.1295
lclavicle -7.55382e-015 -1.27222e-014
lhumerus 12.4337 -17.6017 50.9436
lradius 90.9888
lwrist 29.0478
lhand 4.64583 -22.1162
lfingers 7.12502
lthumb 30.0321 5.46525
rfemur 8.68452 0.698596 22.5109
rtibia 1.27222e-014
rfoot -17.2949 -13.4574
rtoes -18.0727
lfemur -12.4748 -2.90009 -5.19172
ltibia 35.276
lfoot -22.5398 6.66997
ltoes -57.8158
901
root -0.387085 18.5103 6.10031 0.513165 3.27312 -9.02119
lowerback 15.2279 2.49413 -2.65134
upperback 0.338721 2.57651 -3.09265
thorax -8.16685 1.28037 -2.38144
lowerneck -20.7725 -5.0737 -4.03027
upperneck 13.5773 -5.97843 1.53409
head 7.74313 -2.90702 0.404154
rclavicle 1.63003e-014 -1.59028e-014
rhumerus 9.35735 10.7366 -17.373
rradius 91.3951
rwrist -19.9979
rhand -2.55852 -34.289
rfingers 7.12502
rthumb 23.1376 -62.9195
lclavicle 1.63003e-014 -1.59028e-014
lhumerus 11.847 -17.3755 50.0279
lradius 91.2093
lwrist 29.2185
lhand 4.66918 -22.0735
lfingers 7.12502
lthumb 30.0544 5.50395
rfemur 9.33797 0.596691 22.6197
rtibia 7.95139e-015
rfoot -17.5703 -13.3791
rtoes -17.7912
lfemur -11.8771 -2.90643 -5.09908
ltibia 35.2793
lfoot -22.674 6.38999
ltoes -57.7001
902
root -0.388763 18.5007 6.13761 0.314566 3.04208 -9.05591
lowerback 15.1109 2.28667 -2.80577
upperback 0.304513 2.28097 -3.07413
thorax -8.15031 1.14447 -2.20485
lowerneck -20.8467 -4.76361 -3.76358
upperneck 13.8446 -5.58244 1.24211
head 7.81748 -2.73343 0.311963
rclavicle -9.54166e-015 -4.45278e-014
rhumerus 7.97026 11.976 -16.2377
rradius 94.0107
rwrist -20.4766
rhand -2.45937 -34.282
rfingers 7.12502
rthumb 23.2327 -62.9006
lclavicle -9.54166e-015 -4.45278e-014
lhumerus 11.2594 -17.0485 49.0112
lradius 91.4225
lwrist 29.3497
lhand 4.6104 -22.1629
lfingers 7.12502
lthumb 29.9983 5.42472
rfemur 9.69266 0.815868 22.7049
rtibia 6.36111e-015
rfoot -17.672 -13.4195
rtoes -17.8713
lfemur -11.403 -2.76587 -5.04092
ltibia 35.2196
lfoot -22.7775 6.35607
ltoes -57.8102
903
root -0.382421 18.4933 6.17122 0.211137 2.63512 -9.04679
lowerback 14.9361 2.10956 -2.85095
upperback 0.230788 2.04088 -3.11951
thorax -8.1352 1.02983 -2.17019
lowerneck -20.9981 -4.49464 -3.53613
upperneck 14.1575 -5.23246 0.978205
head 7.92542 -2.58078 0.22709
rclavicle 2.46493e-014 3.81667e-014
rhumerus 6.70268 12.9218 -15.2103
rradius 96.3613
rwrist -20.9765
rhand -2.36936 -34.1198
rfingers 7.12502
rthumb 23.3191 -62.7275
lclavicle 2.46493e-014 3.81667e-014
lhumerus 10.6554 -16.6842 47.9856
lradius 91.6444
lwrist 29.4637
lhand 4.62546 -22.2415
lfingers 7.12502
lthumb 30.0127 5.34352
rfemur 9.90207 1.21696 22.7063
rtibia -1.43125e-014
rfoot -17.7101 -13.4666
rtoes -18.0034
lfemur -10.962 -2.58563 -5.08081
ltibia 35.1153
lfoot -22.9412 6.41806
ltoes -57.8244
904
root -0.374163 18.4882 6.20742 0.0929758 2.22578 -8.95474
lowerback 14.812 1.96008 -2.92433
upperback 0.136569 1.82873 -3.16854
thorax -8.17108 0.929554 -2.13344
lowerneck -21.0785 -4.29213 -3.46103
upperneck 14.3696 -4.93879 0.769865
head 7.99632 -2.45852 0.180148
rclavicle 2.62396e-014 -7.31528e-014
rhumerus 5.36947 13.4968 -14.3508
rradius 98.5296
rwrist -21.3404
rhand -2.09659 -33.6648
rfingers 7.12502
rthumb 23.5807 -62.239
lclavicle 2.62396e-014 -7.31528e-014
lhumerus 10.0436 -16.3296 47.0532
lradius 91.8568
lwrist 29.7191
lhand 4.6519 -22.3024
lfingers 7.12502
lthumb 30.0379 5.27804
rfemur 10.1395 1.62051 22.6121
rtibia -2.70347e-014
rfoot -17.7859 -13.5271
rtoes -18.4067
lfemur -10.4876 -2.47021 -5.23293
ltibia 35.0281
lfoot -23.1777 6.48769
ltoes -57.5516
905
root -0.36666 18.4834 6.2419 0.0208669 1.83597 -8.85003
lowerback 14.6497 1.78942 -3.06235
upperback 0.048282 1.58362 -3.17198
thorax -8.18216 0.817053 -2.00274
lowerneck -21.1464 -4.08807 -3.44948
upperneck 14.4434 -4.62238 0.56223
head 8.02079 -2.32932 0.148368
rclavicle 2.06736e-014 3.18055e-015
rhumerus 4.16771 13.7039 -13.6296
rradius 100.457
rwrist -21.6632
rhand -1.71387 -33.2962
rfingers 7.12502
rthumb 23.9478 -61.8227
lclavicle 2.06736e-014 3.18055e-015
lhumerus 9.23217 -15.8725 46.1956
lradius 92.3042
lwrist 30.2676
lhand 4.53302 -22.2255
lfingers 7.12502
lthumb 29.9245 5.37543
rfemur 10.3216 2.00704 22.5047
rtibia -2.38542e-014
rfoot -17.9238 -13.5575
rtoes -18.441
lfemur -10.0889 -2.39763 -5.39616
ltibia 34.9487
lfoot -23.3678 6.61384
ltoes -57.4669
906
root -0.359859 18.4775 6.2746 -0.027491 1.47173 -8.8144
lowerback 14.4397 1.57882 -3.14214
upperback -0.0641178 1.2966 -3.18457
thorax -8.18959 0.682016 -1.90559
lowerneck -21.1242 -3.83808 -3.15961
upperneck 14.4545 -4.29063 0.151434
head 7.99821 -2.19883 0.00869275
rclavicle -3.97569e-015 -3.18055e-015
rhumerus 3.02425 13.7272 -13.1144
rradius 102.114
rwrist -22.0636
rhand -1.47394 -33.0815
rfingers 7.12502
rthumb 24.1779 -61.5776
lclavicle -3.97569e-015 -3.18055e-015
lhumerus 8.20176 -15.4157 45.3109
lradius 92.9557
lwrist 30.9575
lhand 4.26948 -21.9962
lfingers 7.12502
lthumb 29.6729 5.64976
rfemur 10.4729 2.36857 22.4775
rtibia -3.18055e-015
rfoot -18.0276 -13.5612
rtoes -18.209
lfemur -9.75622 -2.31808 -5.47245
ltibia 34.8856
lfoot -23.4704 6.76756
ltoes -57.6747
